<?xml version="1.0" encoding="UTF-8"?>
<svg xmlns="http://www.w3.org/2000/svg" version="1.1" width="500" height="500" viewBox="0 0 500 500"><rect x="0" y="0" width="500" height="500" fill="#11131c"/><g transform="scale(15.152)"><g transform="translate(0,0)"><path fill-rule="evenodd" d="M9 0L9 1L8 1L8 2L9 2L9 3L8 3L8 4L10 4L10 7L11 7L11 4L12 4L12 5L13 5L13 6L12 6L12 9L13 9L13 8L14 8L14 9L16 9L16 10L17 10L17 11L16 11L16 12L15 12L15 11L14 11L14 12L15 12L15 13L12 13L12 11L13 11L13 10L11 10L11 11L10 11L10 9L11 9L11 8L6 8L6 9L5 9L5 8L0 8L0 10L1 10L1 9L3 9L3 10L2 10L2 12L1 12L1 11L0 11L0 13L1 13L1 14L0 14L0 19L1 19L1 20L2 20L2 19L1 19L1 18L3 18L3 20L4 20L4 21L2 21L2 23L3 23L3 24L2 24L2 25L4 25L4 23L3 23L3 22L4 22L4 21L5 21L5 24L6 24L6 25L7 25L7 24L6 24L6 23L8 23L8 27L9 27L9 28L8 28L8 33L9 33L9 31L10 31L10 30L9 30L9 29L10 29L10 27L11 27L11 29L12 29L12 30L13 30L13 31L12 31L12 33L13 33L13 32L14 32L14 33L17 33L17 31L18 31L18 32L21 32L21 31L20 31L20 30L19 30L19 31L18 31L18 30L17 30L17 29L19 29L19 28L20 28L20 29L21 29L21 30L22 30L22 29L21 29L21 28L22 28L22 27L24 27L24 29L25 29L25 30L23 30L23 32L22 32L22 33L27 33L27 32L30 32L30 33L32 33L32 32L33 32L33 31L27 31L27 30L26 30L26 29L29 29L29 30L32 30L32 29L33 29L33 27L32 27L32 26L31 26L31 25L30 25L30 23L29 23L29 22L28 22L28 23L29 23L29 24L27 24L27 23L26 23L26 22L27 22L27 21L26 21L26 22L25 22L25 20L27 20L27 19L26 19L26 16L27 16L27 17L28 17L28 16L27 16L27 15L26 15L26 14L25 14L25 13L24 13L24 14L25 14L25 15L23 15L23 13L22 13L22 12L21 12L21 13L20 13L20 15L19 15L19 16L18 16L18 18L17 18L17 17L16 17L16 16L17 16L17 15L18 15L18 14L17 14L17 15L16 15L16 16L14 16L14 15L15 15L15 14L16 14L16 13L17 13L17 12L20 12L20 10L22 10L22 11L23 11L23 12L25 12L25 11L26 11L26 13L27 13L27 14L28 14L28 15L30 15L30 16L29 16L29 17L30 17L30 18L28 18L28 19L30 19L30 18L31 18L31 17L32 17L32 16L33 16L33 15L32 15L32 14L31 14L31 13L32 13L32 12L33 12L33 11L32 11L32 10L31 10L31 9L32 9L32 8L31 8L31 9L30 9L30 8L29 8L29 10L28 10L28 8L27 8L27 9L26 9L26 8L25 8L25 6L24 6L24 5L25 5L25 2L23 2L23 3L22 3L22 4L21 4L21 5L20 5L20 4L19 4L19 3L21 3L21 2L20 2L20 1L24 1L24 0L19 0L19 3L18 3L18 1L17 1L17 0L16 0L16 1L17 1L17 4L16 4L16 3L15 3L15 4L16 4L16 5L17 5L17 6L16 6L16 8L14 8L14 7L15 7L15 5L14 5L14 4L12 4L12 2L13 2L13 1L11 1L11 2L10 2L10 0ZM14 0L14 1L15 1L15 0ZM10 3L10 4L11 4L11 3ZM23 3L23 4L22 4L22 5L21 5L21 7L22 7L22 8L21 8L21 9L22 9L22 8L23 8L23 10L24 10L24 11L25 11L25 10L24 10L24 9L25 9L25 8L23 8L23 7L24 7L24 6L23 6L23 7L22 7L22 5L24 5L24 3ZM17 4L17 5L18 5L18 6L17 6L17 7L18 7L18 6L19 6L19 7L20 7L20 6L19 6L19 5L18 5L18 4ZM8 5L8 7L9 7L9 5ZM13 6L13 7L14 7L14 6ZM17 8L17 10L18 10L18 8ZM19 8L19 10L20 10L20 8ZM4 9L4 11L3 11L3 12L2 12L2 13L3 13L3 15L2 15L2 14L1 14L1 17L3 17L3 16L4 16L4 20L5 20L5 19L6 19L6 20L8 20L8 19L9 19L9 20L10 20L10 22L8 22L8 21L6 21L6 22L8 22L8 23L9 23L9 25L10 25L10 26L13 26L13 27L12 27L12 29L15 29L15 31L14 31L14 32L16 32L16 31L17 31L17 30L16 30L16 29L17 29L17 28L19 28L19 25L20 25L20 24L21 24L21 23L22 23L22 22L24 22L24 20L25 20L25 18L23 18L23 17L25 17L25 16L26 16L26 15L25 15L25 16L23 16L23 17L22 17L22 18L21 18L21 17L20 17L20 16L19 16L19 18L18 18L18 19L17 19L17 20L19 20L19 21L20 21L20 20L19 20L19 18L20 18L20 19L21 19L21 20L22 20L22 22L20 22L20 24L18 24L18 23L19 23L19 22L18 22L18 21L16 21L16 23L14 23L14 24L13 24L13 25L12 25L12 23L13 23L13 22L12 22L12 21L15 21L15 20L16 20L16 19L15 19L15 17L14 17L14 16L13 16L13 17L12 17L12 15L13 15L13 14L12 14L12 13L11 13L11 12L10 12L10 13L11 13L11 14L10 14L10 15L9 15L9 16L8 16L8 17L6 17L6 16L7 16L7 15L8 15L8 14L7 14L7 13L6 13L6 12L9 12L9 11L6 11L6 10L9 10L9 9L6 9L6 10L5 10L5 9ZM26 10L26 11L27 11L27 13L28 13L28 14L29 14L29 13L30 13L30 11L31 11L31 10L30 10L30 11L27 11L27 10ZM5 11L5 12L6 12L6 11ZM28 12L28 13L29 13L29 12ZM4 13L4 14L5 14L5 16L6 16L6 15L7 15L7 14L6 14L6 13ZM21 14L21 15L22 15L22 14ZM30 14L30 15L31 15L31 14ZM10 15L10 16L11 16L11 15ZM30 16L30 17L31 17L31 16ZM8 17L8 18L6 18L6 19L8 19L8 18L9 18L9 19L10 19L10 18L11 18L11 21L12 21L12 19L13 19L13 18L11 18L11 17L10 17L10 18L9 18L9 17ZM22 18L22 19L23 19L23 20L24 20L24 19L23 19L23 18ZM32 18L32 20L31 20L31 21L30 21L30 22L31 22L31 21L32 21L32 23L31 23L31 24L33 24L33 21L32 21L32 20L33 20L33 18ZM14 19L14 20L15 20L15 19ZM0 21L0 25L1 25L1 21ZM10 22L10 23L11 23L11 22ZM17 22L17 23L16 23L16 24L14 24L14 25L15 25L15 27L14 27L14 28L15 28L15 29L16 29L16 28L17 28L17 27L18 27L18 26L17 26L17 25L16 25L16 24L17 24L17 23L18 23L18 22ZM24 23L24 24L23 24L23 25L24 25L24 24L26 24L26 23ZM25 25L25 28L28 28L28 25ZM29 25L29 27L30 27L30 29L32 29L32 27L31 27L31 26L30 26L30 25ZM20 26L20 27L22 27L22 26ZM26 26L26 27L27 27L27 26ZM15 27L15 28L16 28L16 27ZM25 30L25 31L26 31L26 32L27 32L27 31L26 31L26 30ZM10 32L10 33L11 33L11 32ZM0 0L7 0L7 7L0 7ZM1 1L1 6L6 6L6 1ZM2 2L5 2L5 5L2 5ZM26 0L33 0L33 7L26 7ZM27 1L27 6L32 6L32 1ZM28 2L31 2L31 5L28 5ZM0 26L7 26L7 33L0 33ZM1 27L1 32L6 32L6 27ZM2 28L5 28L5 31L2 31Z" fill="#8b92b0"/></g></g></svg>
