<?xml version="1.0" encoding="UTF-8"?>
<svg xmlns="http://www.w3.org/2000/svg" version="1.1" width="500" height="500" viewBox="0 0 500 500"><rect x="0" y="0" width="500" height="500" fill="#11131c"/><g transform="scale(17.241)"><g transform="translate(0,0)"><path fill-rule="evenodd" d="M10 0L10 2L11 2L11 0ZM12 0L12 1L13 1L13 2L12 2L12 4L14 4L14 5L11 5L11 6L10 6L10 4L11 4L11 3L8 3L8 4L9 4L9 5L8 5L8 7L9 7L9 8L6 8L6 9L5 9L5 8L0 8L0 9L3 9L3 11L2 11L2 10L0 10L0 11L1 11L1 13L0 13L0 14L1 14L1 15L0 15L0 16L1 16L1 17L0 17L0 21L1 21L1 18L2 18L2 20L3 20L3 21L5 21L5 17L4 17L4 20L3 20L3 18L2 18L2 17L3 17L3 16L4 16L4 14L2 14L2 13L4 13L4 10L5 10L5 11L8 11L8 12L5 12L5 14L6 14L6 15L7 15L7 14L8 14L8 15L9 15L9 16L10 16L10 15L11 15L11 16L14 16L14 15L16 15L16 16L15 16L15 17L14 17L14 18L12 18L12 19L11 19L11 17L7 17L7 16L6 16L6 17L7 17L7 18L6 18L6 19L7 19L7 18L10 18L10 19L11 19L11 20L12 20L12 21L14 21L14 20L15 20L15 23L16 23L16 24L14 24L14 22L13 22L13 24L14 24L14 26L13 26L13 25L12 25L12 26L11 26L11 25L10 25L10 27L9 27L9 24L12 24L12 23L9 23L9 22L11 22L11 21L8 21L8 23L9 23L9 24L8 24L8 29L11 29L11 28L12 28L12 27L14 27L14 28L13 28L13 29L14 29L14 28L15 28L15 29L18 29L18 28L19 28L19 27L20 27L20 26L22 26L22 27L24 27L24 25L25 25L25 23L26 23L26 25L29 25L29 23L27 23L27 22L28 22L28 20L29 20L29 17L27 17L27 18L26 18L26 17L25 17L25 15L27 15L27 16L29 16L29 14L28 14L28 13L27 13L27 14L26 14L26 13L25 13L25 12L26 12L26 11L27 11L27 10L28 10L28 8L27 8L27 10L26 10L26 8L25 8L25 9L24 9L24 8L23 8L23 11L22 11L22 12L23 12L23 14L25 14L25 15L22 15L22 16L21 16L21 15L19 15L19 14L22 14L22 13L19 13L19 12L21 12L21 9L22 9L22 8L21 8L21 6L20 6L20 7L19 7L19 5L20 5L20 4L21 4L21 2L20 2L20 1L19 1L19 0L18 0L18 1L17 1L17 2L16 2L16 3L14 3L14 2L15 2L15 1L16 1L16 0L14 0L14 1L13 1L13 0ZM8 1L8 2L9 2L9 1ZM18 1L18 2L17 2L17 3L16 3L16 4L15 4L15 5L14 5L14 6L13 6L13 7L12 7L12 6L11 6L11 7L12 7L12 8L13 8L13 7L14 7L14 8L16 8L16 9L15 9L15 10L16 10L16 11L13 11L13 12L12 12L12 9L11 9L11 8L10 8L10 9L6 9L6 10L9 10L9 12L11 12L11 13L8 13L8 14L11 14L11 13L12 13L12 14L15 14L15 13L13 13L13 12L16 12L16 11L17 11L17 10L19 10L19 11L18 11L18 12L17 12L17 14L19 14L19 13L18 13L18 12L19 12L19 11L20 11L20 8L19 8L19 7L18 7L18 6L17 6L17 5L19 5L19 4L20 4L20 3L19 3L19 1ZM17 3L17 4L16 4L16 5L17 5L17 4L19 4L19 3ZM9 6L9 7L10 7L10 6ZM14 6L14 7L15 7L15 6ZM16 6L16 7L17 7L17 6ZM18 8L18 9L19 9L19 8ZM10 9L10 11L11 11L11 9ZM13 9L13 10L14 10L14 9ZM24 10L24 11L25 11L25 10ZM28 11L28 12L29 12L29 11ZM6 13L6 14L7 14L7 13ZM1 15L1 16L2 16L2 15ZM18 15L18 16L16 16L16 18L15 18L15 20L16 20L16 21L17 21L17 22L19 22L19 23L20 23L20 22L19 22L19 21L20 21L20 20L19 20L19 19L20 19L20 18L21 18L21 19L25 19L25 20L27 20L27 19L28 19L28 18L27 18L27 19L25 19L25 18L22 18L22 17L24 17L24 16L22 16L22 17L21 17L21 16L19 16L19 15ZM18 16L18 18L17 18L17 19L16 19L16 20L17 20L17 21L18 21L18 20L17 20L17 19L19 19L19 18L20 18L20 17L19 17L19 16ZM12 19L12 20L13 20L13 19ZM6 20L6 21L7 21L7 20ZM21 21L21 24L24 24L24 21ZM25 21L25 22L27 22L27 21ZM22 22L22 23L23 23L23 22ZM18 24L18 25L16 25L16 26L15 26L15 28L16 28L16 27L17 27L17 28L18 28L18 27L19 27L19 26L20 26L20 24ZM18 25L18 26L17 26L17 27L18 27L18 26L19 26L19 25ZM22 25L22 26L23 26L23 25ZM26 26L26 27L25 27L25 28L24 28L24 29L27 29L27 27L28 27L28 28L29 28L29 27L28 27L28 26ZM10 27L10 28L11 28L11 27ZM20 28L20 29L23 29L23 28ZM0 0L7 0L7 7L0 7ZM1 1L1 6L6 6L6 1ZM2 2L5 2L5 5L2 5ZM22 0L29 0L29 7L22 7ZM23 1L23 6L28 6L28 1ZM24 2L27 2L27 5L24 5ZM0 22L7 22L7 29L0 29ZM1 23L1 28L6 28L6 23ZM2 24L5 24L5 27L2 27Z" fill="#8b92b0"/></g></g></svg>
